# xmcd
#
# Track frame offsets:
#	150
#	13513
#	26928
#	43030
#	62145
#	75883
#	89673
#	106150
#
# Disc length: 1670 seconds
#
# Revision: 1
# Processed by: cddbd v1.5.1PL0 Copyright (c) Steve Scherf et al.
# Submitted via: audiograbber 1.83.01
#
DISCID=5b068408
DTITLE=Many - Singing Machine
DYEAR=1900
DGENRE=
TTITLE0=Don't Rock The Jukebox_Alan Jackson
TTITLE1=An old Pair of Shoes_Randy Travis
TTITLE2=This ones gonna hurt you_Tritt_Stuart
TTITLE3=Drivin and Cryin_Steve Wariner
TTITLE4=Don't rock The Juke Box -Alan Jackson - vocal track
TTITLE5=An old pair of shoes - Randy Travis - Vocal Track
TTITLE6=This ones gonna hurt you_Tritt_Stuart
TTITLE7=Drivin and Crying_Steve Warniner- vocal track
EXTD=
EXTT0=
EXTT1=
EXTT2=
EXTT3=
EXTT4=
EXTT5=
EXTT6=
EXTT7=
PLAYORDER=
